<svg width="63" height="13" viewBox="0 0 63 13" fill="none" xmlns="http://www.w3.org/2000/svg">
<rect width="63" height="13" fill="white"/>
<path d="M6.53675 6.47746L5.47526 6.50583C5.46422 6.43018 5.43428 6.3632 5.38542 6.30488C5.33656 6.24499 5.27273 6.19849 5.19392 6.1654C5.11669 6.13072 5.02686 6.11338 4.92441 6.11338C4.79044 6.11338 4.67618 6.14018 4.58161 6.19377C4.48862 6.24735 4.44291 6.31985 4.44449 6.41127C4.44291 6.48219 4.47128 6.54366 4.5296 6.59567C4.58949 6.64768 4.69588 6.68945 4.84876 6.72097L5.54854 6.85336C5.91105 6.92271 6.18056 7.03776 6.35708 7.19852C6.53518 7.35929 6.62502 7.57206 6.62659 7.83684C6.62502 8.08587 6.55094 8.30258 6.40436 8.48698C6.25936 8.67138 6.06077 8.81481 5.8086 8.91726C5.55642 9.01813 5.268 9.06856 4.94332 9.06856C4.42479 9.06856 4.01579 8.96217 3.71633 8.7494C3.41845 8.53505 3.24823 8.2482 3.20568 7.88885L4.34756 7.86048C4.37278 7.99288 4.43819 8.09375 4.54378 8.16309C4.64938 8.23244 4.78414 8.26712 4.94805 8.26712C5.0962 8.26712 5.21678 8.23953 5.30977 8.18437C5.40275 8.12921 5.45004 8.05592 5.45161 7.96451C5.45004 7.88255 5.41379 7.81714 5.34286 7.76828C5.27194 7.71785 5.16082 7.67845 5.00952 7.65008L4.37593 7.5295C4.01185 7.46331 3.74076 7.34116 3.56267 7.16306C3.38457 6.98339 3.29631 6.75485 3.29788 6.47746C3.29631 6.23474 3.36093 6.02749 3.49174 5.85569C3.62256 5.68232 3.80854 5.54993 4.04968 5.45852C4.29082 5.3671 4.57531 5.3214 4.90313 5.3214C5.39487 5.3214 5.78259 5.42463 6.06629 5.6311C6.34999 5.83599 6.50681 6.11811 6.53675 6.47746ZM8.35182 6.92901V9H7.19576V5.36868H8.29508V6.03537H8.33527C8.41565 5.81314 8.55278 5.63898 8.74663 5.51289C8.94049 5.38523 9.17139 5.3214 9.43933 5.3214C9.69465 5.3214 9.9161 5.37892 10.1037 5.49398C10.2928 5.60746 10.4394 5.76664 10.5434 5.97154C10.649 6.17485 10.701 6.41284 10.6994 6.68551V9H9.54335V6.91246C9.54493 6.71072 9.4937 6.55311 9.38968 6.43964C9.28723 6.32616 9.1446 6.26942 8.96177 6.26942C8.84041 6.26942 8.73324 6.29621 8.64025 6.3498C8.54883 6.40181 8.47791 6.47667 8.42748 6.57439C8.37862 6.67211 8.3534 6.79032 8.35182 6.92901ZM13.1126 9.06856C12.7328 9.06856 12.4049 8.9937 12.1291 8.84397C11.8549 8.69266 11.6437 8.47752 11.4955 8.19856C11.349 7.91801 11.2757 7.58467 11.2757 7.19852C11.2757 6.82341 11.3498 6.49559 11.4979 6.21504C11.6461 5.93292 11.8549 5.71384 12.1244 5.55781C12.3939 5.4002 12.7115 5.3214 13.0771 5.3214C13.3356 5.3214 13.572 5.36159 13.7864 5.44197C14.0007 5.52235 14.1859 5.64134 14.342 5.79895C14.498 5.95656 14.6194 6.15121 14.706 6.3829C14.7927 6.61301 14.8361 6.877 14.8361 7.17488V7.46331H11.6799V6.79189H13.7604C13.7588 6.66896 13.7297 6.55942 13.6729 6.46328C13.6162 6.36714 13.5382 6.29227 13.4389 6.23868C13.3411 6.18352 13.2285 6.15594 13.1008 6.15594C12.9716 6.15594 12.8557 6.1851 12.7533 6.24341C12.6508 6.30015 12.5696 6.37817 12.5098 6.47746C12.4499 6.57518 12.4183 6.68629 12.4152 6.81081V7.49404C12.4152 7.6422 12.4443 7.77222 12.5027 7.88413C12.561 7.99445 12.6437 8.08035 12.7509 8.14182C12.8581 8.20328 12.9857 8.23402 13.1339 8.23402C13.2363 8.23402 13.3293 8.21983 13.4129 8.19146C13.4964 8.16309 13.5681 8.12133 13.628 8.06616C13.6879 8.011 13.7328 7.94323 13.7627 7.86285L14.8242 7.89358C14.7801 8.13157 14.6832 8.33883 14.5335 8.51535C14.3853 8.6903 14.1907 8.82663 13.9495 8.92435C13.7084 9.02049 13.4294 9.06856 13.1126 9.06856ZM16.4502 9.06147C16.2185 9.06147 16.0128 9.02285 15.8331 8.94562C15.655 8.86682 15.514 8.74861 15.41 8.591C15.3075 8.43182 15.2563 8.23244 15.2563 7.99288C15.2563 7.79114 15.2918 7.62092 15.3627 7.48222C15.4336 7.34353 15.5313 7.23083 15.6558 7.14415C15.7803 7.05746 15.9238 6.99206 16.0861 6.94793C16.2484 6.90222 16.4218 6.87149 16.6062 6.85572C16.8127 6.83681 16.979 6.81711 17.1051 6.79662C17.2311 6.77456 17.3226 6.74382 17.3793 6.70442C17.4376 6.66344 17.4668 6.60591 17.4668 6.53184V6.52002C17.4668 6.39866 17.425 6.30488 17.3415 6.23868C17.2579 6.17249 17.1452 6.13939 17.0034 6.13939C16.8505 6.13939 16.7276 6.17249 16.6346 6.23868C16.5416 6.30488 16.4825 6.39629 16.4573 6.51292L15.3911 6.4751C15.4226 6.25444 15.5037 6.05743 15.6346 5.88406C15.7669 5.70912 15.9482 5.572 16.1783 5.4727C16.41 5.37183 16.6882 5.3214 17.0129 5.3214C17.2445 5.3214 17.4581 5.34898 17.6535 5.40414C17.849 5.45773 18.0192 5.53653 18.1642 5.64056C18.3092 5.743 18.4211 5.86909 18.4999 6.01882C18.5803 6.16855 18.6205 6.33955 18.6205 6.53184V9H17.533V8.49407H17.5046C17.44 8.61701 17.3572 8.72103 17.2564 8.80614C17.1571 8.89125 17.0396 8.95508 16.9041 8.99764C16.7701 9.04019 16.6188 9.06147 16.4502 9.06147ZM16.8072 8.30494C16.9317 8.30494 17.0436 8.27973 17.1429 8.22929C17.2437 8.17886 17.3241 8.10951 17.384 8.02125C17.4439 7.93141 17.4739 7.82739 17.4739 7.70918V7.36401C17.4408 7.38135 17.4006 7.39711 17.3533 7.4113C17.3076 7.42548 17.2571 7.43888 17.202 7.45149C17.1468 7.4641 17.0901 7.47513 17.0318 7.48459C16.9734 7.49404 16.9175 7.50271 16.8639 7.51059C16.7552 7.52793 16.6622 7.55472 16.5849 7.59097C16.5093 7.62722 16.451 7.67451 16.41 7.73282C16.3706 7.78956 16.3509 7.85733 16.3509 7.93614C16.3509 8.05592 16.3934 8.14733 16.4786 8.21038C16.5652 8.27342 16.6748 8.30494 16.8072 8.30494ZM20.3699 8.04725L20.3747 6.66896H20.5354L21.5567 5.36868H22.8665L21.3487 7.23162H21.0437L20.3699 8.04725ZM19.3273 9V4.15824H20.4834V9H19.3273ZM21.5827 9L20.6324 7.49168L21.3936 6.67132L22.9185 9H21.5827ZM24.8281 9.06856C24.4483 9.06856 24.1204 8.9937 23.8446 8.84397C23.5704 8.69266 23.3592 8.47752 23.211 8.19856C23.0645 7.91801 22.9912 7.58467 22.9912 7.19852C22.9912 6.82341 23.0652 6.49559 23.2134 6.21504C23.3616 5.93292 23.5704 5.71384 23.8399 5.55781C24.1094 5.4002 24.427 5.3214 24.7926 5.3214C25.0511 5.3214 25.2875 5.36159 25.5019 5.44197C25.7162 5.52235 25.9014 5.64134 26.0575 5.79895C26.2135 5.95656 26.3349 6.15121 26.4215 6.3829C26.5082 6.61301 26.5516 6.877 26.5516 7.17488V7.46331H23.3954V6.79189H25.4759C25.4743 6.66896 25.4452 6.55942 25.3884 6.46328C25.3317 6.36714 25.2537 6.29227 25.1544 6.23868C25.0566 6.18352 24.944 6.15594 24.8163 6.15594C24.687 6.15594 24.5712 6.1851 24.4688 6.24341C24.3663 6.30015 24.2851 6.37817 24.2253 6.47746C24.1654 6.57518 24.1338 6.68629 24.1307 6.81081V7.49404C24.1307 7.6422 24.1598 7.77222 24.2182 7.88413C24.2765 7.99445 24.3592 8.08035 24.4664 8.14182C24.5736 8.20328 24.7012 8.23402 24.8494 8.23402C24.9518 8.23402 25.0448 8.21983 25.1284 8.19146C25.2119 8.16309 25.2836 8.12133 25.3435 8.06616C25.4034 8.011 25.4483 7.94323 25.4782 7.86285L26.5397 7.89358C26.4956 8.13157 26.3987 8.33883 26.249 8.51535C26.1008 8.6903 25.9062 8.82663 25.665 8.92435C25.4239 9.02049 25.1449 9.06856 24.8281 9.06856ZM27.142 9V5.36868H28.265V6.03064H28.3028C28.369 5.79107 28.477 5.61297 28.6267 5.49634C28.7764 5.37814 28.9506 5.31903 29.1492 5.31903C29.2028 5.31903 29.2579 5.32297 29.3147 5.33085C29.3714 5.33716 29.4242 5.3474 29.4731 5.36159V6.36635C29.4179 6.34743 29.3454 6.33246 29.2556 6.32143C29.1673 6.3104 29.0885 6.30488 29.0191 6.30488C28.882 6.30488 28.7583 6.33561 28.648 6.39708C28.5392 6.45697 28.4533 6.54129 28.3903 6.65004C28.3288 6.75722 28.2981 6.88331 28.2981 7.02831V9H27.142Z" fill="black"/>
<path d="M33.8331 9V5.36868H34.3721V5.93607H34.4194C34.4951 5.74221 34.6172 5.5917 34.7859 5.48452C34.9545 5.37577 35.157 5.3214 35.3935 5.3214C35.633 5.3214 35.8324 5.37577 35.9916 5.48452C36.1523 5.5917 36.2776 5.74221 36.3675 5.93607H36.4053C36.4983 5.74852 36.6378 5.59958 36.8238 5.48925C37.0097 5.37735 37.2328 5.3214 37.4928 5.3214C37.8175 5.3214 38.0831 5.42306 38.2895 5.62637C38.496 5.82811 38.5992 6.14254 38.5992 6.56966V9H38.0413V6.56966C38.0413 6.30173 37.968 6.11023 37.8214 5.99518C37.6748 5.88012 37.5023 5.8226 37.3037 5.8226C37.0484 5.8226 36.8506 5.89982 36.7103 6.05428C36.57 6.20716 36.4999 6.40102 36.4999 6.63586V9H35.9325V6.51292C35.9325 6.30646 35.8655 6.14018 35.7315 6.01409C35.5976 5.88643 35.425 5.8226 35.2138 5.8226C35.0688 5.8226 34.9332 5.86121 34.8071 5.93844C34.6826 6.01567 34.5818 6.12284 34.5045 6.25996C34.4289 6.39551 34.3911 6.55233 34.3911 6.73043V9H33.8331ZM41.0946 9.07565C40.7668 9.07565 40.4791 8.99764 40.2317 8.8416C39.9858 8.68557 39.7935 8.46728 39.6548 8.18674C39.5177 7.90619 39.4491 7.57836 39.4491 7.20325C39.4491 6.82499 39.5177 6.4948 39.6548 6.21268C39.7935 5.93056 39.9858 5.71148 40.2317 5.55545C40.4791 5.39941 40.7668 5.3214 41.0946 5.3214C41.4224 5.3214 41.7093 5.39941 41.9551 5.55545C42.2026 5.71148 42.3949 5.93056 42.532 6.21268C42.6707 6.4948 42.74 6.82499 42.74 7.20325C42.74 7.57836 42.6707 7.90619 42.532 8.18674C42.3949 8.46728 42.2026 8.68557 41.9551 8.8416C41.7093 8.99764 41.4224 9.07565 41.0946 9.07565ZM41.0946 8.57445C41.3436 8.57445 41.5485 8.51062 41.7093 8.38296C41.87 8.2553 41.989 8.08744 42.0662 7.8794C42.1435 7.67135 42.1821 7.44597 42.1821 7.20325C42.1821 6.96053 42.1435 6.73437 42.0662 6.52474C41.989 6.31512 41.87 6.14569 41.7093 6.01645C41.5485 5.88721 41.3436 5.8226 41.0946 5.8226C40.8456 5.8226 40.6407 5.88721 40.4799 6.01645C40.3191 6.14569 40.2001 6.31512 40.1229 6.52474C40.0457 6.73437 40.0071 6.96053 40.0071 7.20325C40.0071 7.44597 40.0457 7.67135 40.1229 7.8794C40.2001 8.08744 40.3191 8.2553 40.4799 8.38296C40.6407 8.51062 40.8456 8.57445 41.0946 8.57445ZM46.1639 6.18194L45.6627 6.32379C45.6312 6.24026 45.5847 6.15909 45.5232 6.08029C45.4633 5.99991 45.3814 5.93371 45.2773 5.8817C45.1733 5.82969 45.0401 5.80368 44.8778 5.80368C44.6556 5.80368 44.4704 5.8549 44.3222 5.95735C44.1756 6.05822 44.1024 6.18667 44.1024 6.34271C44.1024 6.4814 44.1528 6.59094 44.2537 6.67132C44.3545 6.7517 44.5121 6.81869 44.7265 6.87227L45.2655 7.00467C45.5902 7.08347 45.8321 7.20404 45.9913 7.36638C46.1505 7.52714 46.2301 7.7344 46.2301 7.98815C46.2301 8.19619 46.1702 8.38217 46.0504 8.54609C45.9322 8.71 45.7667 8.83924 45.5539 8.9338C45.3412 9.02837 45.0937 9.07565 44.8116 9.07565C44.4412 9.07565 44.1347 8.99527 43.8919 8.83451C43.6492 8.67375 43.4956 8.43891 43.4309 8.13L43.9605 7.9976C44.0109 8.19304 44.1063 8.33962 44.2466 8.43733C44.3884 8.53505 44.5736 8.58391 44.8021 8.58391C45.0622 8.58391 45.2687 8.52875 45.4215 8.41842C45.576 8.30652 45.6532 8.17255 45.6532 8.01652C45.6532 7.89043 45.6091 7.78483 45.5208 7.69972C45.4326 7.61304 45.297 7.54842 45.1142 7.50586L44.509 7.36401C44.1764 7.28521 43.9321 7.16306 43.7761 6.99757C43.6216 6.83051 43.5444 6.62167 43.5444 6.37108C43.5444 6.16618 43.6019 5.98493 43.717 5.82732C43.8336 5.66971 43.992 5.54599 44.1922 5.45615C44.3939 5.36632 44.6225 5.3214 44.8778 5.3214C45.2371 5.3214 45.5193 5.4002 45.7242 5.55781C45.9306 5.71542 46.0772 5.92347 46.1639 6.18194ZM48.5452 9.07565C48.2047 9.07565 47.9116 8.99527 47.6657 8.83451C47.4198 8.67375 47.2307 8.45231 47.0983 8.17019C46.9659 7.88807 46.8997 7.56575 46.8997 7.20325C46.8997 6.83445 46.9675 6.50898 47.103 6.22686C47.2402 5.94317 47.4309 5.72173 47.6752 5.56254C47.921 5.40178 48.2079 5.3214 48.5357 5.3214C48.791 5.3214 49.0211 5.36868 49.226 5.46325C49.4309 5.55781 49.5988 5.6902 49.7296 5.86042C49.8604 6.03064 49.9416 6.22923 49.9731 6.45618H49.4152C49.3726 6.29069 49.278 6.14412 49.1315 6.01645C48.9865 5.88721 48.791 5.8226 48.5452 5.8226C48.3277 5.8226 48.137 5.87933 47.973 5.99281C47.8107 6.10472 47.6838 6.26311 47.5924 6.46801C47.5026 6.67132 47.4577 6.9101 47.4577 7.18434C47.4577 7.46488 47.5018 7.70918 47.5901 7.91722C47.6799 8.12527 47.806 8.28682 47.9683 8.40187C48.1322 8.51693 48.3245 8.57445 48.5452 8.57445C48.6902 8.57445 48.8218 8.54924 48.94 8.4988C49.0582 8.44837 49.1583 8.37587 49.2402 8.2813C49.3222 8.18674 49.3805 8.07326 49.4152 7.94087H49.9731C49.9416 8.15521 49.8636 8.34829 49.7391 8.52008C49.6161 8.6903 49.453 8.82584 49.2497 8.92671C49.0479 9.02601 48.8131 9.07565 48.5452 9.07565ZM52.264 9.07565C51.9361 9.07565 51.6485 8.99764 51.4011 8.8416C51.1552 8.68557 50.9629 8.46728 50.8242 8.18674C50.6871 7.90619 50.6185 7.57836 50.6185 7.20325C50.6185 6.82499 50.6871 6.4948 50.8242 6.21268C50.9629 5.93056 51.1552 5.71148 51.4011 5.55545C51.6485 5.39941 51.9361 5.3214 52.264 5.3214C52.5918 5.3214 52.8786 5.39941 53.1245 5.55545C53.372 5.71148 53.5642 5.93056 53.7014 6.21268C53.8401 6.4948 53.9094 6.82499 53.9094 7.20325C53.9094 7.57836 53.8401 7.90619 53.7014 8.18674C53.5642 8.46728 53.372 8.68557 53.1245 8.8416C52.8786 8.99764 52.5918 9.07565 52.264 9.07565ZM52.264 8.57445C52.513 8.57445 52.7179 8.51062 52.8786 8.38296C53.0394 8.2553 53.1584 8.08744 53.2356 7.8794C53.3129 7.67135 53.3515 7.44597 53.3515 7.20325C53.3515 6.96053 53.3129 6.73437 53.2356 6.52474C53.1584 6.31512 53.0394 6.14569 52.8786 6.01645C52.7179 5.88721 52.513 5.8226 52.264 5.8226C52.0149 5.8226 51.81 5.88721 51.6493 6.01645C51.4885 6.14569 51.3695 6.31512 51.2923 6.52474C51.2151 6.73437 51.1765 6.96053 51.1765 7.20325C51.1765 7.44597 51.2151 7.67135 51.2923 7.8794C51.3695 8.08744 51.4885 8.2553 51.6493 8.38296C51.81 8.51062 52.0149 8.57445 52.264 8.57445ZM55.4603 9L54.3539 5.36868H54.9402L55.7251 8.14891H55.7629L56.5383 5.36868H57.1341L57.9001 8.13945H57.9379L58.7228 5.36868H59.3091L58.2027 9H57.6542L56.8599 6.21031H56.8031L56.0088 9H55.4603Z" fill="#737373"/>
<path d="M30.9906 9.06147C30.8345 9.06147 30.7006 9.0063 30.5887 8.89598C30.4783 8.78408 30.4232 8.65011 30.4232 8.49407C30.4232 8.33962 30.4783 8.20722 30.5887 8.0969C30.7006 7.98657 30.8345 7.93141 30.9906 7.93141C31.1419 7.93141 31.2743 7.98657 31.3878 8.0969C31.5012 8.20722 31.558 8.33962 31.558 8.49407C31.558 8.5981 31.5312 8.69345 31.4776 8.78013C31.4256 8.86524 31.357 8.9338 31.2719 8.98582C31.1868 9.03625 31.093 9.06147 30.9906 9.06147Z" fill="#BD5A2F"/>
</svg>
